<svg xmlns="http://www.w3.org/2000/svg" xmlns:dc="http://purl.org/dc/elements/1.1/" xmlns:ns2="http://creativecommons.org/ns#" xmlns:rdf="http://www.w3.org/1999/02/22-rdf-syntax-ns#" width="440" height="680" viewBox="0 0 440 680"><rect width="440" height="680" rx="20" fill="#f3f0e7" /><g font-family="Arial,sans-serif" text-anchor="middle"><text x="220" y="65" fill="#716586" font-size="11" letter-spacing="2">INTELLIGENCE INSIGHTS</text><text x="257" y="126" fill="#29263d" font-size="32" font-weight="700">Performance</text><text x="257" y="169" fill="#29263d" font-size="32" font-weight="700">Insights</text><text x="220" y="208" fill="#645b70" font-size="14">Less review time. More informed decisions.</text><text x="220" y="620" fill="#716586" font-size="12">AI-assisted analytics for managers</text><svg fill="#D97757" role="img" viewBox="0 0 24 24" x="83" y="283" width="64" height="64"><title>Claude</title><path d="m4.7144 15.9555 4.7174-2.6471.079-.2307-.079-.1275h-.2307l-.7893-.0486-2.6956-.0729-2.3375-.0971-2.2646-.1214-.5707-.1215-.5343-.7042.0546-.3522.4797-.3218.686.0608 1.5179.1032 2.2767.1578 1.6514.0972 2.4468.255h.3886l.0546-.1579-.1336-.0971-.1032-.0972L6.973 9.8356l-2.55-1.6879-1.3356-.9714-.7225-.4918-.3643-.4614-.1578-1.0078.6557-.7225.8803.0607.2246.0607.8925.686 1.9064 1.4754 2.4893 1.8336.3643.3035.1457-.1032.0182-.0728-.164-.2733-1.3539-2.4467-1.445-2.4893-.6435-1.032-.17-.6194c-.0607-.255-.1032-.4674-.1032-.7285L6.287.1335 6.6997 0l.9957.1336.419.3642.6192 1.4147 1.0018 2.2282 1.5543 3.0296.4553.8985.2429.8318.091.255h.1579v-.1457l.1275-1.706.2368-2.0947.2307-2.6957.0789-.7589.3764-.9107.7468-.4918.5828.2793.4797.686-.0668.4433-.2853 1.8517-.5586 2.9021-.3643 1.9429h.2125l.2429-.2429.9835-1.3053 1.6514-2.0643.7286-.8196.85-.9046.5464-.4311h1.0321l.759 1.1293-.34 1.1657-1.0625 1.3478-.8804 1.1414-1.2628 1.7-.7893 1.36.0729.1093.1882-.0183 2.8535-.607 1.5421-.2794 1.8396-.3157.8318.3886.091.3946-.3278.8075-1.967.4857-2.3072.4614-3.4364.8136-.0425.0304.0486.0607 1.5482.1457.6618.0364h1.621l3.0175.2247.7892.522.4736.6376-.079.4857-1.2142.6193-1.6393-.3886-3.825-.9107-1.3113-.3279h-.1822v.1093l1.0929 1.0686 2.0035 1.8092 2.5075 2.3314.1275.5768-.3218.4554-.34-.0486-2.2039-1.6575-.85-.7468-1.9246-1.621h-.1275v.17l.4432.6496 2.3436 3.5214.1214 1.0807-.17.3521-.6071.2125-.6679-.1214-1.3721-1.9246L14.38 17.959l-1.1414-1.9428-.1397.079-.674 7.2552-.3156.3703-.7286.2793-.6071-.4614-.3218-.7468.3218-1.4753.3886-1.9246.3157-1.53.2853-1.9004.17-.6314-.0121-.0425-.1397.0182-1.4328 1.9672-2.1796 2.9446-1.7243 1.8456-.4128.164-.7164-.3704.0667-.6618.4008-.5889 2.386-3.0357 1.4389-1.882.929-1.0868-.0062-.1579h-.0546l-6.3385 4.1164-1.1293.1457-.4857-.4554.0608-.7467.2307-.2429 1.9064-1.3114Z" /></svg><text x="115" y="377" fill="#453d56" font-size="17">Claude AI</text><svg width="64" height="64" fill="currentColor" viewBox="0 0 48 48" x="293" y="283"><path fill="url(#fabric-i7fa1c1-a)" fill-rule="evenodd" d="m5.64 31.6-.586 2.144c-.218.685-.524 1.693-.689 2.59a5.63 5.63 0 0 0 4.638 7.588c.792.114 1.688.108 2.692-.04l4.613-.636a2.92 2.92 0 0 0 2.421-2.127l3.175-11.662L5.64 31.599Z" clip-rule="evenodd" /><path fill="url(#fabric-i7fa1c1-b)" d="M10.14 32.152c-4.863.753-5.861 4.423-5.861 4.423l4.656-17.11 24.333-3.292-3.318 12.052a1.71 1.71 0 0 1-1.388 1.244l-.136.022-18.423 2.684z" /><path fill="url(#fabric-i7fa1c1-c)" fill-opacity=".8" d="M10.14 32.152c-4.863.753-5.861 4.423-5.861 4.423l4.656-17.11 24.333-3.292-3.318 12.052a1.71 1.71 0 0 1-1.388 1.244l-.136.022-18.423 2.684z" /><path fill="url(#fabric-i7fa1c1-d)" d="m12.899 21.235 26.938-3.98a1.6 1.6 0 0 0 1.323-1.17l2.78-10.06a1.595 1.595 0 0 0-1.74-2.012L16.498 7.81a7.19 7.19 0 0 0-5.777 5.193L7.013 26.438c.744-2.717 1.202-4.355 5.886-5.203" /><path fill="url(#fabric-i7fa1c1-e)" d="m12.899 21.235 26.938-3.98a1.6 1.6 0 0 0 1.323-1.17l2.78-10.06a1.595 1.595 0 0 0-1.74-2.012L16.498 7.81a7.19 7.19 0 0 0-5.777 5.193L7.013 26.438c.744-2.717 1.202-4.355 5.886-5.203" /><path fill="url(#fabric-i7fa1c1-f)" fill-opacity=".4" d="m12.899 21.235 26.938-3.98a1.6 1.6 0 0 0 1.323-1.17l2.78-10.06a1.595 1.595 0 0 0-1.74-2.012L16.498 7.81a7.19 7.19 0 0 0-5.777 5.193L7.013 26.438c.744-2.717 1.202-4.355 5.886-5.203" /><path fill="url(#fabric-i7fa1c1-g)" d="M12.899 21.236c-3.901.706-4.87 1.962-5.514 3.932L4.279 36.577s.992-3.633 5.796-4.41l18.352-2.673.136-.022a1.71 1.71 0 0 0 1.388-1.244l2.73-9.915z" /><path fill="url(#fabric-i7fa1c1-h)" fill-opacity=".2" d="M12.899 21.236c-3.901.706-4.87 1.962-5.514 3.932L4.279 36.577s.992-3.633 5.796-4.41l18.352-2.673.136-.022a1.71 1.71 0 0 0 1.388-1.244l2.73-9.915z" /><path fill="url(#fabric-i7fa1c1-i)" fill-rule="evenodd" d="M10.075 32.167c-4.06.657-5.392 3.345-5.71 4.164a5.63 5.63 0 0 0 4.638 7.59c.792.114 1.688.108 2.692-.039l4.613-.637a2.92 2.92 0 0 0 2.421-2.127l2.894-10.633-11.547 1.683z" clip-rule="evenodd" /><defs><linearGradient id="fabric-i7fa1c1-a" x1="12.953" x2="12.953" y1="44.001" y2="29.457" gradientUnits="userSpaceOnUse"><stop offset=".056" stop-color="#2AAC94" /><stop offset=".155" stop-color="#239C87" /><stop offset=".372" stop-color="#177E71" /><stop offset=".588" stop-color="#0E6961" /><stop offset=".799" stop-color="#095D57" /><stop offset="1" stop-color="#085954" /></linearGradient><linearGradient id="fabric-i7fa1c1-b" x1="31.331" x2="17.286" y1="33.448" y2="18.173" gradientUnits="userSpaceOnUse"><stop offset=".042" stop-color="#ABE88E" /><stop offset=".549" stop-color="#2AAA92" /><stop offset=".906" stop-color="#117865" /></linearGradient><linearGradient id="fabric-i7fa1c1-c" x1="-3.182" x2="10.183" y1="32.706" y2="28.148" gradientUnits="userSpaceOnUse"><stop stop-color="#6AD6F9" /><stop offset="1" stop-color="#6AD6F9" stop-opacity="0" /></linearGradient><linearGradient id="fabric-i7fa1c1-d" x1="7.013" x2="42.589" y1="15.219" y2="15.219" gradientUnits="userSpaceOnUse"><stop offset=".043" stop-color="#25FFD4" /><stop offset=".874" stop-color="#55DDB9" /></linearGradient><linearGradient id="fabric-i7fa1c1-e" x1="7.013" x2="39.06" y1="10.247" y2="25.128" gradientUnits="userSpaceOnUse"><stop stop-color="#6AD6F9" /><stop offset=".23" stop-color="#60E9D0" /><stop offset=".651" stop-color="#6DE9BB" /><stop offset=".994" stop-color="#ABE88E" /></linearGradient><linearGradient id="fabric-i7fa1c1-f" x1="9.978" x2="27.404" y1="13.031" y2="16.885" gradientUnits="userSpaceOnUse"><stop stop-color="#fff" stop-opacity="0" /><stop offset=".459" stop-color="#fff" /><stop offset="1" stop-color="#fff" stop-opacity="0" /></linearGradient><linearGradient id="fabric-i7fa1c1-g" x1="15.756" x2="16.168" y1="27.96" y2="15.74" gradientUnits="userSpaceOnUse"><stop offset=".205" stop-color="#063D3B" stop-opacity="0" /><stop offset=".586" stop-color="#063D3B" stop-opacity=".237" /><stop offset=".872" stop-color="#063D3B" stop-opacity=".75" /></linearGradient><linearGradient id="fabric-i7fa1c1-h" x1="2.81" x2="17.701" y1="26.744" y2="29.545" gradientUnits="userSpaceOnUse"><stop stop-color="#fff" stop-opacity="0" /><stop offset=".459" stop-color="#fff" /><stop offset="1" stop-color="#fff" stop-opacity="0" /></linearGradient><linearGradient id="fabric-i7fa1c1-i" x1="13.567" x2="10.662" y1="39.97" y2="25.764" gradientUnits="userSpaceOnUse"><stop offset=".064" stop-color="#063D3B" stop-opacity="0" /><stop offset=".17" stop-color="#063D3B" stop-opacity=".135" /><stop offset=".562" stop-color="#063D3B" stop-opacity=".599" /><stop offset=".85" stop-color="#063D3B" stop-opacity=".9" /><stop offset="1" stop-color="#063D3B" /></linearGradient></defs></svg><text x="325" y="377" fill="#453d56" font-size="17">Microsoft Fabric</text><svg width="64" height="64" viewBox="0 0 1200 1600" fill="none" version="1.1" id="power-bi-svg19655" x="83" y="455">
  <metadata id="power-bi-metadata19659">
    <rdf:RDF>
      <ns2:Work rdf:about="">
        <dc:format>image/svg+xml</dc:format>
        <dc:type rdf:resource="http://purl.org/dc/dcmitype/StillImage" />
        <dc:title />
      </ns2:Work>
    </rdf:RDF>
  </metadata>
  <mask id="power-bi-mask0" mask-type="alpha" maskUnits="userSpaceOnUse" x="200" y="0" width="1200" height="1600">
    <path d="m 1333.25,0 c 36.86,0 66.75,29.8849 66.75,66.75 v 1466.5 c 0,36.86 -29.89,66.75 -66.75,66.75 H 266.667 C 229.848,1600 200,1570.15 200,1533.33 V 866.667 C 200,829.848 229.848,800 266.667,800 H 525 V 466.667 C 525,429.848 554.848,400 591.667,400 H 850 V 66.75 C 850,29.885 879.885,0 916.75,0 Z" fill="#ffffff" id="power-bi-path19600" />
  </mask>
  <g mask="url(#power-bi-mask0)" id="power-bi-g19611" transform="translate(-200)">
    <path d="m 1400,66.75 v 1466.5 c 0,36.86 -29.89,66.75 -66.75,66.75 H 916.75 C 879.885,1600 850,1570.11 850,1533.25 V 66.75 C 850,29.885 879.885,0 916.75,0 h 416.5 c 36.87,0 66.75,29.8849 66.75,66.75 z" fill="url(#power-bi-paint0_linear)" id="power-bi-path19603" style="fill:url(#power-bi-paint0_linear)" />
    <g filter="url(#power-bi-filter0_dd)" id="power-bi-g19607">
      <path d="M 1075,466.667 V 1600 H 525 V 466.667 C 525,429.848 554.848,400 591.667,400 h 416.663 c 36.82,0 66.67,29.848 66.67,66.667 z" fill="url(#power-bi-paint1_linear)" id="power-bi-path19605" style="fill:url(#power-bi-paint1_linear)" />
    </g>
    <path d="m 200,866.667 v 666.663 c 0,36.82 29.848,66.67 66.667,66.67 H 750 V 866.667 C 750,829.848 720.152,800 683.333,800 H 266.667 C 229.848,800 200,829.848 200,866.667 Z" fill="url(#power-bi-paint2_linear)" id="power-bi-path19609" style="fill:url(#power-bi-paint2_linear)" />
  </g>
  <defs id="power-bi-defs19653">
    <filter id="power-bi-filter0_dd" x="519.66699" y="396" width="560.66699" height="1210.67" filterUnits="userSpaceOnUse" color-interpolation-filters="sRGB">
      <feFlood flood-opacity="0" result="BackgroundImageFix" id="power-bi-feFlood19613" />
      <feColorMatrix in="SourceAlpha" type="matrix" values="0 0 0 0 0 0 0 0 0 0 0 0 0 0 0 0 0 0 127 0" id="power-bi-feColorMatrix19615" />
      <feOffset dy="0.253333" id="power-bi-feOffset19617" />
      <feGaussianBlur stdDeviation="0.253333" id="power-bi-feGaussianBlur19619" />
      <feColorMatrix type="matrix" values="0 0 0 0 0 0 0 0 0 0 0 0 0 0 0 0 0 0 0.2 0" id="power-bi-feColorMatrix19621" />
      <feBlend mode="normal" in2="BackgroundImageFix" result="effect1_dropShadow" id="power-bi-feBlend19623" />
      <feColorMatrix in="SourceAlpha" type="matrix" values="0 0 0 0 0 0 0 0 0 0 0 0 0 0 0 0 0 0 127 0" id="power-bi-feColorMatrix19625" />
      <feOffset dy="1.33333" id="power-bi-feOffset19627" />
      <feGaussianBlur stdDeviation="2.66667" id="power-bi-feGaussianBlur19629" />
      <feColorMatrix type="matrix" values="0 0 0 0 0 0 0 0 0 0 0 0 0 0 0 0 0 0 0.18 0" id="power-bi-feColorMatrix19631" />
      <feBlend mode="normal" in2="effect1_dropShadow" result="effect2_dropShadow" id="power-bi-feBlend19633" />
      <feBlend mode="normal" in="SourceGraphic" in2="effect2_dropShadow" result="shape" id="power-bi-feBlend19635" />
    </filter>
    <linearGradient id="power-bi-paint0_linear" x1="758.33301" y1="-1.49632e-05" x2="1447.8199" y2="1507.15" gradientUnits="userSpaceOnUse">
      <stop stop-color="#E6AD10" id="power-bi-stop19638" />
      <stop offset="1" stop-color="#C87E0E" id="power-bi-stop19640" />
    </linearGradient>
    <linearGradient id="power-bi-paint1_linear" x1="524.95502" y1="400" x2="1105.79" y2="1561.67" gradientUnits="userSpaceOnUse">
      <stop stop-color="#F6D751" id="power-bi-stop19643" />
      <stop offset="1" stop-color="#E6AD10" id="power-bi-stop19645" />
    </linearGradient>
    <linearGradient id="power-bi-paint2_linear" x1="199.955" y1="800" x2="519.784" y2="1581.6801" gradientUnits="userSpaceOnUse">
      <stop stop-color="#F9E589" id="power-bi-stop19648" />
      <stop offset="1" stop-color="#F6D751" id="power-bi-stop19650" />
    </linearGradient>
  </defs>
</svg><text x="115" y="549" fill="#453d56" font-size="17">Power BI</text><svg width="64" height="64" viewBox="0 0 96 96" fill="none" x="293" y="455">
<g clip-path="url(#power-apps-clip0_4303_1230)">
<g clip-path="url(#power-apps-clip1_4303_1230)">
<path d="M44.1553 9.77196L62.9254 42.6196C64.8305 45.9536 64.8305 50.0464 62.9254 53.3804L44.1553 86.228C38.7808 95.6334 25.219 95.6335 19.8445 86.228L2.2525 55.4421C-0.382637 50.8306 -0.382645 45.1694 2.25249 40.5579L19.8445 9.77196C25.219 0.366551 38.7808 0.366549 44.1553 9.77196Z" fill="url(#power-apps-paint0_linear_4303_1230)" />
<path d="M44.1553 9.77196L62.9254 42.6196C64.8305 45.9536 64.8305 50.0464 62.9254 53.3804L44.1553 86.228C38.7808 95.6334 25.219 95.6335 19.8445 86.228L2.2525 55.4421C-0.382637 50.8306 -0.382645 45.1694 2.25249 40.5579L19.8445 9.77196C25.219 0.366551 38.7808 0.366549 44.1553 9.77196Z" fill="url(#power-apps-paint1_radial_4303_1230)" />
<path d="M65.9999 48L44.1553 86.228C38.7808 95.6334 25.219 95.6334 19.8445 86.228L1.99988 55C7.30568 64.2852 20.6941 64.2852 25.9999 55L47.9999 16.5L65.9999 48Z" fill="url(#power-apps-paint2_linear_4303_1230)" />
<path d="M65.9999 48L44.1553 86.228C38.7808 95.6334 25.219 95.6334 19.8445 86.228L1.99988 55C7.30568 64.2852 20.6941 64.2852 25.9999 55L47.9999 16.5L65.9999 48Z" fill="url(#power-apps-paint3_linear_4303_1230)" />
<path d="M54.9458 28.6554L81.9999 76L93.3881 56.0705C96.2458 51.0696 96.2458 44.9304 93.3881 39.9295L76.1553 9.77196C70.7808 0.366554 57.219 0.366554 51.8445 9.77197L41.0539 28.6554C44.1251 23.2809 51.8747 23.2809 54.9458 28.6554Z" fill="url(#power-apps-paint4_linear_4303_1230)" />
<path d="M54.9458 28.6554L81.9999 76L93.3881 56.0705C96.2458 51.0696 96.2458 44.9304 93.3881 39.9295L76.1553 9.77196C70.7808 0.366554 57.219 0.366554 51.8445 9.77197L41.0539 28.6554C44.1251 23.2809 51.8747 23.2809 54.9458 28.6554Z" fill="url(#power-apps-paint5_linear_4303_1230)" />
<path d="M79.7318 23.9691L47.9999 79.5L51.8445 86.228C57.219 95.6334 70.7808 95.6335 76.1553 86.228L94.0308 54.9459C96.4902 50.6419 96.4902 45.3581 94.0308 41.0541L79.7318 16.0309C81.1372 18.4903 81.1372 21.5096 79.7318 23.9691Z" fill="url(#power-apps-paint6_linear_4303_1230)" />
<path d="M51.8445 86.228L47.9999 79.5L65.9999 48L81.9999 76L76.1553 86.228C70.7808 95.6334 57.219 95.6334 51.8445 86.228Z" fill="url(#power-apps-paint7_linear_4303_1230)" />
</g>
</g>
<defs>
<linearGradient id="power-apps-paint0_linear_4303_1230" x1="15.9999" y1="60.5" x2="27.9994" y2="5.00001" gradientUnits="userSpaceOnUse">
<stop stop-color="#520B56" />
<stop offset="1" stop-color="#742774" />
</linearGradient>
<radialGradient id="power-apps-paint1_radial_4303_1230" cx="0" cy="0" r="1" gradientUnits="userSpaceOnUse" gradientTransform="translate(31.4999 8.00002) rotate(123.811) scale(65.5935 20.3157)">
<stop offset="0.512391" stop-color="#4C1E4C" stop-opacity="0" />
<stop offset="1" stop-color="#4C1E4C" />
</radialGradient>
<linearGradient id="power-apps-paint2_linear_4303_1230" x1="11.9999" y1="71" x2="59.4999" y2="41.5" gradientUnits="userSpaceOnUse">
<stop stop-color="#D467B9" />
<stop offset="0.308079" stop-color="#982F90" />
<stop offset="1" stop-color="#742774" />
</linearGradient>
<linearGradient id="power-apps-paint3_linear_4303_1230" x1="43.9999" y1="53.4998" x2="67.5" y2="50.9998" gradientUnits="userSpaceOnUse">
<stop stop-color="#742774" stop-opacity="0" />
<stop offset="1" stop-color="#520B56" />
</linearGradient>
<linearGradient id="power-apps-paint4_linear_4303_1230" x1="42.9999" y1="29" x2="82.4999" y2="56" gradientUnits="userSpaceOnUse">
<stop stop-color="#E9A1CB" />
<stop offset="0.40829" stop-color="#D467B9" />
<stop offset="1" stop-color="#BB35A4" />
</linearGradient>
<linearGradient id="power-apps-paint5_linear_4303_1230" x1="67.4999" y1="23.5" x2="80.9999" y2="26.5" gradientUnits="userSpaceOnUse">
<stop stop-color="#E48CC7" stop-opacity="0" />
<stop offset="1" stop-color="#BB35A4" />
</linearGradient>
<linearGradient id="power-apps-paint6_linear_4303_1230" x1="89.2565" y1="77.1621" x2="76.4515" y2="41.3836" gradientUnits="userSpaceOnUse">
<stop stop-color="#E48CC7" />
<stop offset="1" stop-color="#F7C4E2" />
</linearGradient>
<linearGradient id="power-apps-paint7_linear_4303_1230" x1="75.1999" y1="77.5801" x2="54.869" y2="32.0777" gradientUnits="userSpaceOnUse">
<stop stop-color="#E48CC7" stop-opacity="0" />
<stop offset="0.67724" stop-color="#D467B9" stop-opacity="0.5" />
<stop offset="1" stop-color="#BB35A4" />
</linearGradient>
<clipPath id="power-apps-clip0_4303_1230">
<rect width="96" height="96" fill="white" />
</clipPath>
<clipPath id="power-apps-clip1_4303_1230">
<rect width="96" height="96" fill="white" />
</clipPath>
</defs>
</svg><text x="325" y="549" fill="#453d56" font-size="17">Power Apps</text></g><defs><marker id="overview-arrow" viewBox="0 0 10 10" refX="8" refY="5" markerWidth="6" markerHeight="6" orient="auto-start-reverse"><path d="M1 1L9 5L1 9" fill="none" stroke="#8b7da0" stroke-width="1.5" stroke-linecap="round" stroke-linejoin="round" /></marker></defs><path d="M166 315H274" fill="none" stroke="#8b7da0" stroke-width="2" marker-start="url(#overview-arrow)" marker-end="url(#overview-arrow)" /><path d="M325 393V433" fill="none" stroke="#8b7da0" stroke-width="2" marker-start="url(#overview-arrow)" marker-end="url(#overview-arrow)" /><g transform="translate(35 102)" fill="#e5dfed" stroke="#8b7da0" stroke-width="2" aria-label="Performance insights database"><path d="M0 10V51C0 64 50 64 50 51V10" /><ellipse cx="25" cy="10" rx="25" ry="10" /><path d="M0 30C0 43 50 43 50 30" fill="none" /></g></svg>